<svg width="100" height="114" viewBox="0 0 100 114" fill="none" xmlns="http://www.w3.org/2000/svg">
<path d="M49.7652 113.016L9.06914 101.719L0 0H99.6523L90.5738 101.703L49.7652 113.016Z" fill="#264DE4"/>
<path d="M82.8016 95.227L90.5594 8.3168H49.8262V104.369L82.8016 95.227Z" fill="#2965F1"/>
<path d="M20.7906 46.043L21.9086 58.5184H49.8262V46.043H20.7906Z" fill="#EBEBEB"/>
<path d="M18.5437 20.7926L19.6777 33.268H49.8261V20.7926H18.5437Z" fill="#EBEBEB"/>
<path d="M49.8262 78.443L49.7715 78.4574L35.8778 74.7059L34.9895 64.7563H22.4661L24.2137 84.3445L49.7688 91.4383L49.8262 91.4227V78.443Z" fill="#EBEBEB"/>
<path d="M78.7821 46.043L81.034 20.7926H49.7832V33.268H67.3621L66.227 46.043H49.7832V58.5184H65.1453L63.6969 74.698L49.7828 78.4535V91.4324L75.3582 84.3445L75.5457 82.2367L78.4778 49.393L78.7821 46.043Z" fill="white"/>
</svg>
