<svg width="100" height="114" viewBox="0 0 100 114" fill="none" xmlns="http://www.w3.org/2000/svg">
<path d="M99.6523 0L90.5738 101.703L49.7652 113.016L9.06914 101.719L0 0H99.6523Z" fill="#E44D26"/>
<path d="M49.8262 104.369L82.8016 95.227L90.5594 8.3168H49.8262V104.369Z" fill="#F16529"/>
<path d="M32.1777 33.268H49.8261V20.7926H18.5437L18.8421 24.1394L21.9085 58.5184H49.8261V46.043H33.3179L32.1777 33.268Z" fill="#EBEBEB"/>
<path d="M34.9895 64.7563H22.4661L24.2137 84.3445L49.7688 91.4383L49.8262 91.4227V78.443L49.7715 78.4574L35.8778 74.7059L34.9895 64.7563Z" fill="#EBEBEB"/>
<path d="M49.7832 58.5184H65.1453L63.6969 74.698L49.7828 78.4535V91.4324L75.3582 84.3445L75.5457 82.2367L78.4778 49.393L78.782 46.043H49.7832V58.5184Z" fill="white"/>
<path d="M49.7833 33.2375V33.268H79.9173L80.1673 30.464L80.7361 24.1394L81.0341 20.7926H49.7833V33.2379V33.2375Z" fill="white"/>
</svg>
